<svg width="256" height="256" viewBox="0 0 256 256" fill="none" xmlns="http://www.w3.org/2000/svg">
  <defs>
    <linearGradient id="g1" x1="40" y1="34" x2="212" y2="224" gradientUnits="userSpaceOnUse">
      <stop stop-color="#71B6FF"/>
      <stop offset="1" stop-color="#78D8A4"/>
    </linearGradient>
  </defs>
  <rect x="20" y="20" width="216" height="216" rx="68" fill="url(#g1)"/>
  <circle cx="128" cy="118" r="54" fill="white" fill-opacity="0.95"/>
  <path d="M96 114C104.667 104 115.333 99 128 99C140.667 99 151.333 104 160 114" stroke="#2D6CDF" stroke-width="10" stroke-linecap="round"/>
  <path d="M108 130C112.5 136.5 119.167 140 128 140C136.833 140 143.5 136.5 148 130" stroke="#2D6CDF" stroke-width="10" stroke-linecap="round"/>
  <circle cx="109" cy="117" r="6" fill="#2D6CDF"/>
  <circle cx="147" cy="117" r="6" fill="#2D6CDF"/>
  <path d="M78 170C90 156.667 106.667 150 128 150C149.333 150 166 156.667 178 170" stroke="white" stroke-width="12" stroke-linecap="round"/>
  <path d="M74 70C83.333 59.3333 95.333 54 110 54" stroke="white" stroke-width="10" stroke-linecap="round"/>
</svg>
